#!OML:ASF E:\Style4\Style4.ASF
:FULLY-SPECIFIED
:DEGREES
2796
root 0.4889 17.2775 -2.26591 10.2475 -0.456718 3.30494
lowerback 20.4544 2.37248 0.190339
upperback 14.4652 3.07632 1.14358
thorax 4.27899 1.50979 0.618856
lowerneck 1.62993 -13.7722 -8.7051
upperneck 31.4644 -19.0824 3.53135
head 11.1957 -9.15036 0.912453
rclavicle 2.06736e-014 -4.77083e-015
rhumerus 50.4401 4.96405 -1531.84
rradius 12.0831
rwrist 1440.94
rhand -21.7827 14.6072
rfingers 7.12502
rthumb 4.6186 -15.3225
lclavicle 2.06736e-014 -4.77083e-015
lhumerus 64.0469 18.9426 24.2202
lradius 120.427
lwrist 46.8115
lhand -6.83059 28.0335
lfingers 7.12502
lthumb 19.0337 57.1222
rfemur -39.0097 -8.28331 15.6488
rtibia 46.8298
rfoot -16.5595 -14.6928
rtoes -11.1251
lfemur -37.7888 3.35663 -25.2852
ltibia 44.5053
lfoot -17.3051 10.7026
ltoes -12.6719
2797
root 0.485394 17.2571 -2.26398 10.1044 -0.564132 3.27424
lowerback 20.459 2.41111 0.201614
upperback 14.521 3.12695 1.056
thorax 4.34567 1.54029 0.512821
lowerneck 1.70862 -13.8344 -8.44083
upperneck 31.5492 -19.2041 3.55608
head 11.1961 -9.17682 0.874921
rclavicle -1.51076e-014 8.74653e-015
rhumerus 50.4313 4.96478 -1531.9
rradius 9.83671
rwrist 1443.91
rhand -21.3631 13.6128
rfingers 7.12502
rthumb 5.02378 -16.3077
lclavicle -1.51076e-014 8.74653e-015
lhumerus 64.3091 18.7193 24.2115
lradius 120.385
lwrist 46.8597
lhand -6.65666 28.0376
lfingers 7.12502
lthumb 19.201 57.1098
rfemur -39.0497 -8.20872 15.6637
rtibia 47.179
rfoot -16.6065 -14.7045
rtoes -12.3844
lfemur -37.8454 3.44815 -25.2393
ltibia 44.9165
lfoot -17.5499 10.7583
ltoes -12.8711
2798
root 0.479873 17.239 -2.26074 9.88856 -0.632599 3.21391
lowerback 20.5303 2.44265 0.22961
upperback 14.5819 3.1709 1.0153
thorax 4.38347 1.56642 0.4459
lowerneck 1.73904 -13.9152 -8.18194
upperneck 31.7028 -19.3016 3.40034
head 11.2105 -9.20587 0.773718
rclavicle 1.98785e-014 -1.82882e-014
rhumerus 50.4937 4.95692 -1531.89
rradius 7.40395
rwrist 1447.17
rhand -20.9038 12.6908
rfingers 7.12502
rthumb 5.4672 -17.2187
lclavicle 1.98785e-014 -1.82882e-014
lhumerus 64.498 18.5476 24.2516
lradius 120.34
lwrist 46.9607
lhand -6.46411 28.0022
lfingers 7.12502
lthumb 19.3862 57.0558
rfemur -39.0017 -8.1547 15.7225
rtibia 47.5277
rfoot -16.5637 -14.8554
rtoes -14.194
lfemur -37.8275 3.6011 -25.1712
ltibia 45.3377
lfoot -17.7701 10.7417
ltoes -13.2713
2799
root 0.473091 17.2188 -2.25689 9.68322 -0.675944 3.18221
lowerback 20.6198 2.47245 0.193326
upperback 14.5735 3.20351 1.01435
thorax 4.32748 1.58007 0.455788
lowerneck 1.75972 -13.9433 -8.07985
upperneck 32.0551 -19.3449 3.30042
head 11.3275 -9.21511 0.711626
rclavicle -1.19271e-014 7.95139e-016
rhumerus 49.752 4.91057 -1531.77
rradius 6.40876
rwrist 1450.57
rhand -19.6341 11.0316
rfingers 7.12502
rthumb 6.69307 -18.8426
lclavicle -1.19271e-014 7.95139e-016
lhumerus 64.5344 18.2394 24.2718
lradius 120.262
lwrist 46.976
lhand -6.41008 27.9333
lfingers 7.12502
lthumb 19.4381 56.9817
rfemur -38.973 -8.15195 15.7709
rtibia 47.8876
rfoot -16.9001 -14.7845
rtoes -12.8219
lfemur -37.8304 3.76265 -25.1364
ltibia 45.774
lfoot -17.9616 10.6399
ltoes -13.1803
2800
root 0.467728 17.1949 -2.25208 9.44344 -0.726139 3.1207
lowerback 20.7582 2.49388 0.191471
upperback 14.5409 3.23019 1.035
thorax 4.22033 1.59207 0.467407
lowerneck 1.82824 -13.9446 -8.1828
upperneck 32.444 -19.3877 3.36095
head 11.4957 -9.23027 0.733768
rclavicle -1.51076e-014 -8.74653e-015
rhumerus 48.982 4.81848 -1531.56
rradius 5.45394
rwrist 1453.64
rhand -17.9062 9.42687
rfingers 7.12502
rthumb 8.36085 -20.3877
lclavicle -1.51076e-014 -8.74653e-015
lhumerus 64.4812 17.8912 24.3077
lradius 120.209
lwrist 46.9065
lhand -6.28342 27.7849
lfingers 7.12502
lthumb 19.5599 56.821
rfemur -38.903 -8.13109 15.8303
rtibia 48.254
rfoot -17.1244 -14.793
rtoes -12.994
lfemur -37.7904 3.85155 -25.0588
ltibia 46.2281
lfoot -18.0936 10.7117
ltoes -13.9265
2801
root 0.461357 17.1702 -2.24462 9.18717 -0.787347 3.04176
lowerback 20.8455 2.51249 0.261645
upperback 14.5593 3.26415 1.01225
thorax 4.20345 1.61533 0.395262
lowerneck 1.97177 -13.9487 -8.26751
upperneck 32.5476 -19.4365 3.4846
head 11.5405 -9.25115 0.789894
rclavicle 1.03368e-014 -5.56597e-015
rhumerus 48.386 4.66668 -1531.4
rradius 4.52641
rwrist 1456.87
rhand -15.6261 7.71254
rfingers 7.12502
rthumb 10.5609 -22.0021
lclavicle 1.03368e-014 -5.56597e-015
lhumerus 64.557 17.6092 24.3108
lradius 120.172
lwrist 46.9167
lhand -6.1435 27.7431
lfingers 7.12502
lthumb 19.6944 56.7654
rfemur -38.7977 -8.04043 15.8788
rtibia 48.6393
rfoot -17.0361 -15.0573
rtoes -15.915
lfemur -37.7288 3.9077 -24.9309
ltibia 46.6978
lfoot -18.3314 10.75
ltoes -14.1573
2802
root 0.453664 17.1476 -2.23585 8.94762 -0.841243 2.98863
lowerback 20.8498 2.53713 0.326685
upperback 14.63 3.30533 0.957602
thorax 4.2891 1.6438 0.296269
lowerneck 1.96829 -13.9525 -8.24588
upperneck 32.6054 -19.4961 3.64448
head 11.5862 -9.25987 0.83228
rclavicle -2.78299e-014 1.98785e-014
rhumerus 47.9305 4.51872 -1531.3
rradius 3.71031
rwrist 1460.64
rhand -12.5564 6.07602
rfingers 7.12502
rthumb 13.5208 -23.465
lclavicle -2.78299e-014 1.98785e-014
lhumerus 64.7452 17.4273 24.3074
lradius 120.161
lwrist 47.0028
lhand -5.98245 27.9448
lfingers 7.12502
lthumb 19.8492 56.9512
rfemur -38.7301 -8.00221 15.9333
rtibia 49.0434
rfoot -16.935 -15.2753
rtoes -17.6901
lfemur -37.6732 3.99732 -24.8325
ltibia 47.1576
lfoot -18.6917 10.6779
ltoes -13.8528
